Funiko.ufo
<glyph name="percent" format="2">
  <advance width="512"/>
  <unicode hex="0025"/>
  <outline>
    <contour>
      <point x="425" y="676" type="curve"/>
      <point x="418" y="666"/>
      <point x="416" y="658"/>
      <point x="411" y="651" type="curve" smooth="yes"/>
      <point x="303" y="476"/>
      <point x="199" y="300"/>
      <point x="114" y="117" type="curve"/>
      <point x="103" y="106"/>
      <point x="103" y="92"/>
      <point x="99" y="80" type="curve" smooth="yes"/>
      <point x="95" y="71"/>
      <point x="95" y="63"/>
      <point x="91" y="53" type="curve" smooth="yes"/>
      <point x="78" y="37"/>
      <point x="59" y="30"/>
      <point x="48" y="41" type="curve"/>
      <point x="35" y="44"/>
      <point x="28" y="63"/>
      <point x="35" y="80" type="curve" smooth="yes"/>
      <point x="43" y="101"/>
      <point x="51" y="123"/>
      <point x="59" y="144" type="curve" smooth="yes"/>
      <point x="143" y="310"/>
      <point x="237" y="476"/>
      <point x="332" y="637" type="curve" smooth="yes"/>
      <point x="345" y="654"/>
      <point x="358" y="676"/>
      <point x="372" y="693" type="curve" smooth="yes"/>
      <point x="382" y="700"/>
      <point x="396" y="706"/>
      <point x="404" y="700" type="curve" smooth="yes"/>
      <point x="416" y="693"/>
      <point x="418" y="684"/>
    </contour>
    <contour>
      <point x="297" y="26" type="curve" smooth="yes"/>
      <point x="230" y="26"/>
      <point x="168" y="92"/>
      <point x="179" y="161" type="curve" smooth="yes"/>
      <point x="182" y="193"/>
      <point x="196" y="223"/>
      <point x="207" y="247" type="curve" smooth="yes"/>
      <point x="242" y="310"/>
      <point x="319" y="317"/>
      <point x="372" y="268" type="curve" smooth="yes"/>
      <point x="382" y="257"/>
      <point x="396" y="253"/>
      <point x="402" y="240" type="curve"/>
      <point x="438" y="209"/>
      <point x="448" y="170"/>
      <point x="432" y="126" type="curve"/>
      <point x="416" y="66"/>
      <point x="358" y="26"/>
    </contour>
    <contour>
      <point x="233" y="174" type="curve"/>
      <point x="233" y="117"/>
      <point x="265" y="80"/>
      <point x="303" y="85" type="curve" smooth="yes"/>
      <point x="338" y="87"/>
      <point x="362" y="106"/>
      <point x="382" y="139" type="curve"/>
      <point x="389" y="167"/>
      <point x="384" y="182"/>
      <point x="362" y="201" type="curve" smooth="yes"/>
      <point x="352" y="214"/>
      <point x="338" y="216"/>
      <point x="328" y="230" type="curve" smooth="yes"/>
      <point x="309" y="247"/>
      <point x="273" y="247"/>
      <point x="259" y="223" type="curve" smooth="yes"/>
      <point x="245" y="203"/>
      <point x="237" y="182"/>
    </contour>
    <contour>
      <point x="255" y="590" type="curve" smooth="yes"/>
      <point x="255" y="524"/>
      <point x="199" y="447"/>
      <point x="138" y="427" type="curve" smooth="yes"/>
      <point x="107" y="420"/>
      <point x="81" y="427"/>
      <point x="59" y="441" type="curve" smooth="yes"/>
      <point x="19" y="471"/>
      <point x="-8" y="540"/>
      <point x="5" y="593" type="curve" smooth="yes"/>
      <point x="19" y="651"/>
      <point x="65" y="693"/>
      <point x="121" y="700" type="curve" smooth="yes"/>
      <point x="182" y="709"/>
      <point x="255" y="644"/>
    </contour>
    <contour>
      <point x="51" y="563" type="curve"/>
      <point x="59" y="540"/>
      <point x="65" y="524"/>
      <point x="73" y="506" type="curve"/>
      <point x="91" y="482"/>
      <point x="114" y="476"/>
      <point x="138" y="492" type="curve" smooth="yes"/>
      <point x="165" y="506"/>
      <point x="182" y="528"/>
      <point x="189" y="554" type="curve" smooth="yes"/>
      <point x="202" y="590"/>
      <point x="199" y="607"/>
      <point x="179" y="623" type="curve" smooth="yes"/>
      <point x="145" y="651"/>
      <point x="121" y="651"/>
      <point x="91" y="634" type="curve"/>
      <point x="72" y="613"/>
      <point x="58" y="593"/>
    </contour>
  </outline>
</glyph>
<glyph name="ampersand" format="2">
  <advance width="452"/>
  <unicode hex="0026"/>
  <outline>
    <contour>
      <point x="276" y="228" type="curve"/>
      <point x="258" y="228"/>
      <point x="246" y="228"/>
      <point x="231" y="228" type="curve" smooth="yes"/>
      <point x="184" y="227"/>
      <point x="191" y="288"/>
      <point x="227" y="291" type="curve" smooth="yes"/>
      <point x="264" y="298"/>
      <point x="343" y="301"/>
      <point x="378" y="301" type="curve" smooth="yes"/>
      <point x="409" y="301"/>
      <point x="421" y="278"/>
      <point x="409" y="255" type="curve" smooth="yes"/>
      <point x="399" y="237"/>
      <point x="347" y="242"/>
      <point x="344" y="226" type="curve" smooth="yes"/>
      <point x="346" y="119"/>
      <point x="264" y="2"/>
      <point x="159" y="4" type="curve" smooth="yes"/>
      <point x="1" y="8"/>
      <point x="-49" y="252"/>
      <point x="63" y="361" type="curve"/>
      <point x="-17" y="437"/>
      <point x="-5" y="572"/>
      <point x="69" y="642" type="curve" smooth="yes"/>
      <point x="156" y="725"/>
      <point x="298" y="638"/>
      <point x="263" y="520" type="curve"/>
      <point x="260" y="482"/>
      <point x="207" y="494"/>
      <point x="207" y="528" type="curve" smooth="yes"/>
      <point x="207" y="577"/>
      <point x="172" y="652"/>
      <point x="114" y="600" type="curve" smooth="yes"/>
      <point x="65" y="554"/>
      <point x="50" y="390"/>
      <point x="140" y="404" type="curve" smooth="yes"/>
      <point x="157" y="404"/>
      <point x="177" y="400"/>
      <point x="198" y="404" type="curve"/>
      <point x="236" y="401"/>
      <point x="242" y="351"/>
      <point x="207" y="345" type="curve"/>
      <point x="193" y="337"/>
      <point x="177" y="340"/>
      <point x="157" y="337" type="curve" smooth="yes"/>
      <point x="55" y="317"/>
      <point x="19" y="71"/>
      <point x="162" y="63" type="curve" smooth="yes"/>
      <point x="236" y="57"/>
      <point x="301" y="164"/>
    </contour>
  </outline>
</glyph>
<glyph name="parenleft" format="2">
  <advance width="215"/>
  <unicode hex="0028"/>
  <outline>
    <contour>
      <point x="3" y="555" type="curve"/>
      <point x="-2" y="633"/>
      <point x="43" y="685"/>
      <point x="108" y="715" type="curve"/>
      <point x="136" y="738"/>
      <point x="160" y="703"/>
      <point x="133" y="684" type="curve"/>
      <point x="99" y="651"/>
      <point x="63" y="636"/>
      <point x="63" y="577" type="curve" smooth="yes"/>
      <point x="54" y="429"/>
      <point x="58" y="290"/>
      <point x="58" y="151" type="curve" smooth="yes"/>
      <point x="58" y="80"/>
      <point x="100" y="56"/>
      <point x="146" y="21" type="curve" smooth="yes"/>
      <point x="165" y="3"/>
      <point x="145" y="-30"/>
      <point x="123" y="-15" type="curve" smooth="yes"/>
      <point x="64" y="21"/>
      <point x="5" y="64"/>
      <point x="5" y="141" type="curve" smooth="yes"/>
      <point x="-2" y="295"/>
      <point x="3" y="424"/>
    </contour>
  </outline>
</glyph>
<glyph name="asterisk" format="2">
  <advance width="354"/>
  <unicode hex="002A"/>
  <outline>
    <contour>
      <point x="166" y="601" type="curve"/>
      <point x="187" y="615"/>
      <point x="203" y="629"/>
      <point x="222" y="641" type="curve" smooth="yes"/>
      <point x="246" y="654"/>
      <point x="270" y="631"/>
      <point x="256" y="609" type="curve" smooth="yes"/>
      <point x="248" y="596"/>
      <point x="195" y="559"/>
      <point x="181" y="548" type="curve"/>
      <point x="212" y="526"/>
      <point x="230" y="512"/>
      <point x="262" y="495" type="curve"/>
      <point x="276" y="473"/>
      <point x="258" y="438"/>
      <point x="234" y="456" type="curve"/>
      <point x="204" y="472"/>
      <point x="183" y="475"/>
      <point x="159" y="497" type="curve"/>
      <point x="158" y="468"/>
      <point x="161" y="446"/>
      <point x="157" y="419" type="curve" smooth="yes"/>
      <point x="149" y="388"/>
      <point x="113" y="390"/>
      <point x="110" y="421" type="curve"/>
      <point x="112" y="443"/>
      <point x="110" y="464"/>
      <point x="108" y="493" type="curve"/>
      <point x="81" y="485"/>
      <point x="66" y="472"/>
      <point x="44" y="457" type="curve"/>
      <point x="19" y="455"/>
      <point x="6" y="467"/>
      <point x="14" y="491" type="curve" smooth="yes"/>
      <point x="16" y="504"/>
      <point x="84" y="541"/>
      <point x="93" y="548" type="curve"/>
      <point x="74" y="567"/>
      <point x="47" y="588"/>
      <point x="26" y="604" type="curve"/>
      <point x="9" y="633"/>
      <point x="42" y="662"/>
      <point x="64" y="637" type="curve" smooth="yes"/>
      <point x="74" y="625"/>
      <point x="95" y="619"/>
      <point x="112" y="598" type="curve"/>
      <point x="118" y="625"/>
      <point x="114" y="650"/>
      <point x="120" y="675" type="curve" smooth="yes"/>
      <point x="123" y="689"/>
      <point x="133" y="696"/>
      <point x="145" y="697" type="curve" smooth="yes"/>
      <point x="164" y="693"/>
      <point x="169" y="683"/>
      <point x="167" y="671" type="curve" smooth="yes"/>
      <point x="168" y="648"/>
      <point x="167" y="628"/>
    </contour>
  </outline>
</glyph>
<glyph name="hyphen" format="2">
  <advance width="416"/>
  <unicode hex="002D"/>
  <outline>
    <contour>
      <point x="37" y="324" type="curve" smooth="yes"/>
      <point x="20" y="325"/>
      <point x="7" y="334"/>
      <point x="8" y="353" type="curve" smooth="yes"/>
      <point x="8" y="365"/>
      <point x="23" y="378"/>
      <point x="37" y="377" type="curve" smooth="yes"/>
      <point x="126" y="381"/>
      <point x="193" y="383"/>
      <point x="276" y="382" type="curve" smooth="yes"/>
      <point x="295" y="381"/>
      <point x="311" y="379"/>
      <point x="315" y="357" type="curve" smooth="yes"/>
      <point x="318" y="335"/>
      <point x="289" y="324"/>
      <point x="273" y="325" type="curve" smooth="yes"/>
      <point x="179" y="327"/>
      <point x="120" y="319"/>
    </contour>
  </outline>
</glyph>
<glyph name="slash" format="2">
  <advance width="380"/>
  <unicode hex="002F"/>
  <outline>
    <contour>
      <point x="289" y="658" type="curve"/>
      <point x="214" y="443"/>
      <point x="132" y="221"/>
      <point x="57" y="7" type="curve" smooth="yes"/>
      <point x="42" y="-28"/>
      <point x="-5" y="-13"/>
      <point x="13" y="23" type="curve"/>
      <point x="91" y="245"/>
      <point x="168" y="462"/>
      <point x="245" y="684" type="curve"/>
      <point x="281" y="746"/>
      <point x="317" y="701"/>
    </contour>
  </outline>
</glyph>
<glyph name="one" format="2">
  <advance width="274"/>
  <unicode hex="0031"/>
  <outline>
    <contour>
      <point x="82" y="639" type="curve"/>
      <point x="68" y="638"/>
      <point x="53" y="636"/>
      <point x="39" y="636" type="curve" smooth="yes"/>
      <point x="-7" y="638"/>
      <point x="-4" y="686"/>
      <point x="38" y="694" type="curve" smooth="yes"/>
      <point x="58" y="696"/>
      <point x="80" y="700"/>
      <point x="102" y="703" type="curve" smooth="yes"/>
      <point x="136" y="706"/>
      <point x="151" y="693"/>
      <point x="146" y="660" type="curve" smooth="yes"/>
      <point x="127" y="450"/>
      <point x="133" y="251"/>
      <point x="133" y="54" type="curve"/>
      <point x="154" y="52"/>
      <point x="170" y="51"/>
      <point x="185" y="49" type="curve" smooth="yes"/>
      <point x="232" y="46"/>
      <point x="229" y="-2"/>
      <point x="185" y="-4" type="curve" smooth="yes"/>
      <point x="141" y="-5"/>
      <point x="78" y="8"/>
      <point x="35" y="-6" type="curve"/>
      <point x="-3" y="-12"/>
      <point x="-7" y="30"/>
      <point x="21" y="44" type="curve" smooth="yes"/>
      <point x="32" y="48"/>
      <point x="64" y="54"/>
      <point x="75" y="55" type="curve"/>
      <point x="77" y="253"/>
      <point x="80" y="442"/>
    </contour>
  </outline>
</glyph>
<glyph name="two" format="2">
  <advance width="392"/>
  <unicode hex="0032"/>
  <outline>
    <contour>
      <point x="83" y="66" type="curve"/>
      <point x="151" y="64"/>
      <point x="213" y="70"/>
      <point x="273" y="55" type="curve"/>
      <point x="317" y="38"/>
      <point x="305" y="-9"/>
      <point x="260" y="-3" type="curve" smooth="yes"/>
      <point x="178" y="7"/>
      <point x="121" y="3"/>
      <point x="58" y="-5" type="curve" smooth="yes"/>
      <point x="41" y="-8"/>
      <point x="25" y="-11"/>
      <point x="12" y="5" type="curve" smooth="yes"/>
      <point x="2" y="21"/>
      <point x="7" y="36"/>
      <point x="12" y="52" type="curve" smooth="yes"/>
      <point x="36" y="112"/>
      <point x="67" y="164"/>
      <point x="108" y="212" type="curve" smooth="yes"/>
      <point x="149" y="264"/>
      <point x="192" y="314"/>
      <point x="231" y="367" type="curve" smooth="yes"/>
      <point x="273" y="423"/>
      <point x="288" y="487"/>
      <point x="273" y="557" type="curve" smooth="yes"/>
      <point x="256" y="632"/>
      <point x="187" y="666"/>
      <point x="123" y="630" type="curve" smooth="yes"/>
      <point x="116" y="626"/>
      <point x="110" y="621"/>
      <point x="105" y="616" type="curve" smooth="yes"/>
      <point x="71" y="597"/>
      <point x="41" y="640"/>
      <point x="71" y="662" type="curve" smooth="yes"/>
      <point x="92" y="677"/>
      <point x="115" y="693"/>
      <point x="140" y="699" type="curve" smooth="yes"/>
      <point x="240" y="722"/>
      <point x="319" y="655"/>
      <point x="331" y="546" type="curve" smooth="yes"/>
      <point x="342" y="464"/>
      <point x="321" y="389"/>
      <point x="273" y="325" type="curve" smooth="yes"/>
      <point x="234" y="276"/>
      <point x="193" y="227"/>
      <point x="153" y="178" type="curve" smooth="yes"/>
      <point x="126" y="145"/>
      <point x="99" y="111"/>
    </contour>
  </outline>
</glyph>
<glyph name="three" format="2">
  <advance width="336"/>
  <unicode hex="0033"/>
  <outline>
    <contour>
      <point x="177" y="307" type="curve"/>
      <point x="291" y="250"/>
      <point x="311" y="69"/>
      <point x="192" y="11" type="curve" smooth="yes"/>
      <point x="138" y="-15"/>
      <point x="82" y="-16"/>
      <point x="26" y="5" type="curve" smooth="yes"/>
      <point x="21" y="8"/>
      <point x="15" y="10"/>
      <point x="13" y="14" type="curve" smooth="yes"/>
      <point x="3" y="34"/>
      <point x="-2" y="55"/>
      <point x="25" y="62" type="curve" smooth="yes"/>
      <point x="36" y="65"/>
      <point x="47" y="58"/>
      <point x="59" y="57" type="curve" smooth="yes"/>
      <point x="86" y="56"/>
      <point x="115" y="51"/>
      <point x="141" y="56" type="curve" smooth="yes"/>
      <point x="250" y="76"/>
      <point x="232" y="247"/>
      <point x="130" y="255" type="curve" smooth="yes"/>
      <point x="109" y="256"/>
      <point x="85" y="249"/>
      <point x="64" y="245" type="curve" smooth="yes"/>
      <point x="14" y="235"/>
      <point x="7" y="289"/>
      <point x="41" y="306" type="curve" smooth="yes"/>
      <point x="67" y="320"/>
      <point x="93" y="328"/>
      <point x="118" y="341" type="curve" smooth="yes"/>
      <point x="181" y="374"/>
      <point x="217" y="428"/>
      <point x="225" y="502" type="curve" smooth="yes"/>
      <point x="231" y="554"/>
      <point x="220" y="618"/>
      <point x="168" y="634" type="curve" smooth="yes"/>
      <point x="129" y="647"/>
      <point x="89" y="649"/>
      <point x="51" y="626" type="curve" smooth="yes"/>
      <point x="49" y="624"/>
      <point x="46" y="623"/>
      <point x="45" y="622" type="curve" smooth="yes"/>
      <point x="7" y="607"/>
      <point x="-12" y="649"/>
      <point x="17" y="671" type="curve" smooth="yes"/>
      <point x="29" y="681"/>
      <point x="45" y="690"/>
      <point x="60" y="695" type="curve" smooth="yes"/>
      <point x="99" y="706"/>
      <point x="137" y="706"/>
      <point x="175" y="695" type="curve" smooth="yes"/>
      <point x="240" y="674"/>
      <point x="276" y="625"/>
      <point x="282" y="551" type="curve" smooth="yes"/>
      <point x="289" y="453"/>
      <point x="248" y="363"/>
    </contour>
  </outline>
</glyph>
<glyph name="five" format="2">
  <advance width="374"/>
  <unicode hex="0035"/>
  <outline>
    <contour>
      <point x="57" y="631" type="curve"/>
      <point x="58" y="586"/>
      <point x="60" y="541"/>
      <point x="62" y="491" type="curve"/>
      <point x="146" y="506"/>
      <point x="215" y="512"/>
      <point x="266" y="436" type="curve" smooth="yes"/>
      <point x="298" y="389"/>
      <point x="309" y="335"/>
      <point x="309" y="281" type="curve" smooth="yes"/>
      <point x="309" y="192"/>
      <point x="283" y="116"/>
      <point x="221" y="57" type="curve" smooth="yes"/>
      <point x="174" y="11"/>
      <point x="119" y="-10"/>
      <point x="57" y="-5" type="curve" smooth="yes"/>
      <point x="-2" y="-2"/>
      <point x="-2" y="66"/>
      <point x="59" y="58" type="curve" smooth="yes"/>
      <point x="196" y="41"/>
      <point x="300" y="222"/>
      <point x="231" y="382" type="curve" smooth="yes"/>
      <point x="210" y="431"/>
      <point x="168" y="449"/>
      <point x="115" y="438" type="curve" smooth="yes"/>
      <point x="97" y="434"/>
      <point x="80" y="424"/>
      <point x="62" y="418" type="curve" smooth="yes"/>
      <point x="31" y="407"/>
      <point x="13" y="416"/>
      <point x="11" y="450" type="curve" smooth="yes"/>
      <point x="6" y="518"/>
      <point x="3" y="585"/>
      <point x="3" y="652" type="curve" smooth="yes"/>
      <point x="3" y="690"/>
      <point x="14" y="700"/>
      <point x="51" y="700" type="curve" smooth="yes"/>
      <point x="119" y="702"/>
      <point x="186" y="703"/>
      <point x="255" y="703" type="curve" smooth="yes"/>
      <point x="265" y="703"/>
      <point x="273" y="703"/>
      <point x="282" y="700" type="curve" smooth="yes"/>
      <point x="317" y="690"/>
      <point x="307" y="639"/>
      <point x="273" y="639" type="curve" smooth="yes"/>
      <point x="215" y="638"/>
      <point x="94" y="645"/>
    </contour>
  </outline>
</glyph>
<glyph name="seven" format="2">
  <advance width="348"/>
  <unicode hex="0037"/>
  <outline>
    <contour>
      <point x="220" y="285" type="curve"/>
      <point x="245" y="276"/>
      <point x="271" y="282"/>
      <point x="268" y="255" type="curve" smooth="yes"/>
      <point x="263" y="220"/>
      <point x="231" y="234"/>
      <point x="208" y="227" type="curve"/>
      <point x="201" y="190"/>
      <point x="194" y="148"/>
      <point x="189" y="109" type="curve" smooth="yes"/>
      <point x="185" y="85"/>
      <point x="184" y="62"/>
      <point x="181" y="38" type="curve" smooth="yes"/>
      <point x="175" y="-6"/>
      <point x="114" y="-14"/>
      <point x="120" y="30" type="curve" smooth="yes"/>
      <point x="122" y="54"/>
      <point x="127" y="80"/>
      <point x="131" y="104" type="curve" smooth="yes"/>
      <point x="137" y="145"/>
      <point x="144" y="186"/>
      <point x="152" y="230" type="curve"/>
      <point x="137" y="232"/>
      <point x="127" y="232"/>
      <point x="116" y="234" type="curve" smooth="yes"/>
      <point x="80" y="241"/>
      <point x="86" y="285"/>
      <point x="119" y="288" type="curve" smooth="yes"/>
      <point x="132" y="290"/>
      <point x="146" y="289"/>
      <point x="163" y="289" type="curve"/>
      <point x="189" y="403"/>
      <point x="215" y="517"/>
      <point x="240" y="631" type="curve"/>
      <point x="201" y="647"/>
      <point x="80" y="625"/>
      <point x="43" y="622" type="curve" smooth="yes"/>
      <point x="39" y="621"/>
      <point x="35" y="621"/>
      <point x="32" y="621" type="curve" smooth="yes"/>
      <point x="16" y="623"/>
      <point x="5" y="631"/>
      <point x="4" y="647" type="curve" smooth="yes"/>
      <point x="2" y="662"/>
      <point x="9" y="672"/>
      <point x="24" y="675" type="curve" smooth="yes"/>
      <point x="95" y="689"/>
      <point x="168" y="692"/>
      <point x="235" y="695" type="curve" smooth="yes"/>
      <point x="281" y="699"/>
      <point x="303" y="679"/>
      <point x="295" y="632" type="curve" smooth="yes"/>
      <point x="283" y="564"/>
      <point x="266" y="496"/>
      <point x="252" y="429" type="curve" smooth="yes"/>
      <point x="242" y="382"/>
      <point x="231" y="335"/>
    </contour>
  </outline>
</glyph>
<glyph name="eight" format="2">
  <advance width="418"/>
  <unicode hex="0038"/>
  <outline>
    <contour>
      <point x="264" y="293" type="curve"/>
      <point x="301" y="256"/>
      <point x="323" y="207"/>
      <point x="323" y="161" type="curve" smooth="yes"/>
      <point x="323" y="70"/>
      <point x="250" y="-9"/>
      <point x="180" y="-4" type="curve" smooth="yes"/>
      <point x="102" y="2"/>
      <point x="56" y="63"/>
      <point x="49" y="134" type="curve" smooth="yes"/>
      <point x="44" y="184"/>
      <point x="54" y="241"/>
      <point x="94" y="289" type="curve"/>
      <point x="26" y="318"/>
      <point x="-1" y="400"/>
      <point x="-1" y="467" type="curve" smooth="yes"/>
      <point x="-1" y="611"/>
      <point x="87" y="699"/>
      <point x="176" y="698" type="curve" smooth="yes"/>
      <point x="272" y="697"/>
      <point x="370" y="599"/>
      <point x="363" y="462" type="curve" smooth="yes"/>
      <point x="360" y="402"/>
      <point x="324" y="332"/>
    </contour>
    <contour>
      <point x="52" y="477" type="curve" smooth="yes"/>
      <point x="56" y="277"/>
      <point x="294" y="283"/>
      <point x="308" y="465" type="curve" smooth="yes"/>
      <point x="315" y="563"/>
      <point x="245" y="641"/>
      <point x="177" y="643" type="curve" smooth="yes"/>
      <point x="114" y="645"/>
      <point x="53" y="578"/>
    </contour>
    <contour>
      <point x="103" y="154" type="curve" smooth="yes"/>
      <point x="102" y="96"/>
      <point x="142" y="46"/>
      <point x="181" y="48" type="curve" smooth="yes"/>
      <point x="221" y="50"/>
      <point x="263" y="105"/>
      <point x="268" y="157" type="curve"/>
      <point x="268" y="290"/>
      <point x="107" y="293"/>
    </contour>
  </outline>
</glyph>
<glyph name="colon" format="2">
  <advance width="188"/>
  <unicode hex="003A"/>
  <outline>
    <contour>
      <point x="81" y="67" type="curve" smooth="yes"/>
      <point x="76" y="58"/>
      <point x="76" y="44"/>
      <point x="73" y="34" type="curve" smooth="yes"/>
      <point x="63" y="-2"/>
      <point x="15" y="9"/>
      <point x="18" y="44" type="curve" smooth="yes"/>
      <point x="18" y="58"/>
      <point x="25" y="72"/>
      <point x="25" y="86" type="curve"/>
      <point x="48" y="133"/>
      <point x="88" y="105"/>
    </contour>
    <contour>
      <point x="81" y="377" type="curve" smooth="yes"/>
      <point x="76" y="368"/>
      <point x="76" y="354"/>
      <point x="73" y="344" type="curve" smooth="yes"/>
      <point x="63" y="308"/>
      <point x="15" y="319"/>
      <point x="18" y="354" type="curve" smooth="yes"/>
      <point x="18" y="368"/>
      <point x="25" y="382"/>
      <point x="25" y="396" type="curve"/>
      <point x="48" y="443"/>
      <point x="88" y="415"/>
    </contour>
  </outline>
</glyph>
<glyph name="semicolon" format="2">
  <advance width="168"/>
  <unicode hex="003B"/>
  <outline>
    <contour>
      <point x="76" y="37" type="curve" smooth="yes"/>
      <point x="62" y="5"/>
      <point x="55" y="-36"/>
      <point x="42" y="-68" type="curve"/>
      <point x="29" y="-118"/>
      <point x="-24" y="-112"/>
      <point x="-14" y="-68" type="curve" smooth="yes"/>
      <point x="-1" y="-21"/>
      <point x="16" y="26"/>
      <point x="30" y="73" type="curve" smooth="yes"/>
      <point x="40" y="115"/>
      <point x="101" y="84"/>
    </contour>
    <contour>
      <point x="81" y="377" type="curve" smooth="yes"/>
      <point x="76" y="368"/>
      <point x="76" y="354"/>
      <point x="73" y="344" type="curve" smooth="yes"/>
      <point x="63" y="308"/>
      <point x="15" y="319"/>
      <point x="18" y="354" type="curve" smooth="yes"/>
      <point x="18" y="368"/>
      <point x="25" y="382"/>
      <point x="25" y="396" type="curve"/>
      <point x="48" y="443"/>
      <point x="88" y="415"/>
    </contour>
  </outline>
</glyph>
<glyph name="equal" format="2">
  <advance width="412"/>
  <unicode hex="003D"/>
  <outline>
    <contour>
      <point x="37" y="269" type="curve" smooth="yes"/>
      <point x="-1" y="272"/>
      <point x="1" y="322"/>
      <point x="37" y="322" type="curve" smooth="yes"/>
      <point x="126" y="326"/>
      <point x="217" y="328"/>
      <point x="300" y="327" type="curve" smooth="yes"/>
      <point x="357" y="324"/>
      <point x="344" y="267"/>
      <point x="297" y="270" type="curve" smooth="yes"/>
      <point x="203" y="272"/>
      <point x="120" y="264"/>
    </contour>
    <contour>
      <point x="37" y="388" type="curve" smooth="yes"/>
      <point x="-1" y="390"/>
      <point x="1" y="441"/>
      <point x="37" y="441" type="curve" smooth="yes"/>
      <point x="126" y="445"/>
      <point x="217" y="447"/>
      <point x="300" y="446" type="curve" smooth="yes"/>
      <point x="358" y="442"/>
      <point x="344" y="385"/>
      <point x="297" y="389" type="curve" smooth="yes"/>
      <point x="203" y="391"/>
      <point x="120" y="383"/>
    </contour>
  </outline>
</glyph>
<glyph name="at" format="2">
  <advance width="500"/>
  <unicode hex="0040"/>
  <outline>
    <contour>
      <point x="272" y="306" type="curve"/>
      <point x="258" y="292"/>
      <point x="242" y="279"/>
      <point x="222" y="266" type="curve" smooth="yes"/>
      <point x="131" y="202"/>
      <point x="92" y="455"/>
      <point x="231" y="455" type="curve" smooth="yes"/>
      <point x="245" y="455"/>
      <point x="250" y="449"/>
      <point x="263" y="452" type="curve"/>
      <point x="297" y="483"/>
      <point x="337" y="454"/>
      <point x="328" y="418" type="curve" smooth="yes"/>
      <point x="321" y="390"/>
      <point x="327" y="361"/>
      <point x="341" y="338" type="curve"/>
      <point x="378" y="389"/>
      <point x="376" y="475"/>
      <point x="336" y="518" type="curve"/>
      <point x="239" y="608"/>
      <point x="127" y="550"/>
      <point x="89" y="442" type="curve" smooth="yes"/>
      <point x="57" y="345"/>
      <point x="68" y="141"/>
      <point x="210" y="138" type="curve"/>
      <point x="268" y="131"/>
      <point x="310" y="176"/>
      <point x="349" y="211" type="curve"/>
      <point x="396" y="244"/>
      <point x="435" y="203"/>
      <point x="400" y="168" type="curve" smooth="yes"/>
      <point x="349" y="115"/>
      <point x="292" y="59"/>
      <point x="207" y="68" type="curve" smooth="yes"/>
      <point x="-6" y="94"/>
      <point x="-30" y="368"/>
      <point x="52" y="518" type="curve" smooth="yes"/>
      <point x="118" y="642"/>
      <point x="271" y="666"/>
      <point x="376" y="571" type="curve" smooth="yes"/>
      <point x="447" y="510"/>
      <point x="441" y="403"/>
      <point x="418" y="328" type="curve"/>
      <point x="386" y="244"/>
      <point x="312" y="265"/>
    </contour>
    <contour>
      <point x="224" y="380" type="curve" smooth="yes"/>
      <point x="217" y="383"/>
      <point x="211" y="366"/>
      <point x="209" y="361" type="curve" smooth="yes"/>
      <point x="207" y="355"/>
      <point x="205" y="341"/>
      <point x="210" y="341" type="curve" smooth="yes"/>
      <point x="218" y="341"/>
      <point x="225" y="356"/>
      <point x="226" y="359" type="curve" smooth="yes"/>
      <point x="229" y="367"/>
      <point x="229" y="375"/>
    </contour>
  </outline>
</glyph>
<glyph name="C" format="2">
  <advance width="436"/>
  <unicode hex="0043"/>
  <outline>
    <contour>
      <point x="60" y="330" type="curve"/>
      <point x="60" y="239"/>
      <point x="73" y="163"/>
      <point x="113" y="100" type="curve" smooth="yes"/>
      <point x="146" y="54"/>
      <point x="188" y="47"/>
      <point x="227" y="87" type="curve" smooth="yes"/>
      <point x="260" y="123"/>
      <point x="289" y="164"/>
      <point x="318" y="202" type="curve" smooth="yes"/>
      <point x="332" y="220"/>
      <point x="376" y="256"/>
      <point x="376" y="199" type="curve" smooth="yes"/>
      <point x="376" y="188"/>
      <point x="370" y="174"/>
      <point x="364" y="164" type="curve" smooth="yes"/>
      <point x="327" y="122"/>
      <point x="297" y="74"/>
      <point x="260" y="36" type="curve" smooth="yes"/>
      <point x="196" y="-25"/>
      <point x="117" y="-11"/>
      <point x="69" y="66" type="curve" smooth="yes"/>
      <point x="11" y="153"/>
      <point x="-5" y="251"/>
      <point x="5" y="358" type="curve" smooth="yes"/>
      <point x="19" y="507"/>
      <point x="78" y="680"/>
      <point x="238" y="705" type="curve"/>
      <point x="322" y="696"/>
      <point x="319" y="609"/>
      <point x="308" y="547" type="curve" smooth="yes"/>
      <point x="304" y="504"/>
      <point x="247" y="512"/>
      <point x="256" y="563" type="curve" smooth="yes"/>
      <point x="261" y="595"/>
      <point x="270" y="642"/>
      <point x="227" y="639" type="curve" smooth="yes"/>
      <point x="106" y="626"/>
      <point x="68" y="423"/>
    </contour>
  </outline>
</glyph>
<glyph name="D" format="2">
  <advance width="412"/>
  <unicode hex="0044"/>
  <outline>
    <contour>
      <point x="89" y="18" type="curve" smooth="yes"/>
      <point x="74" y="2"/>
      <point x="58" y="-8"/>
      <point x="34" y="0" type="curve" smooth="yes"/>
      <point x="8" y="8"/>
      <point x="5" y="26"/>
      <point x="5" y="47" type="curve" smooth="yes"/>
      <point x="8" y="250"/>
      <point x="9" y="437"/>
      <point x="6" y="624" type="curve" smooth="yes"/>
      <point x="6" y="653"/>
      <point x="11" y="663"/>
      <point x="44" y="674" type="curve" smooth="yes"/>
      <point x="146" y="715"/>
      <point x="261" y="694"/>
      <point x="319" y="600" type="curve"/>
      <point x="411" y="385"/>
      <point x="233" y="168"/>
    </contour>
    <contour>
      <point x="74" y="622" type="curve"/>
      <point x="74" y="446"/>
      <point x="74" y="272"/>
      <point x="74" y="91" type="curve"/>
      <point x="171" y="207"/>
      <point x="331" y="399"/>
      <point x="272" y="550" type="curve" smooth="yes"/>
      <point x="244" y="627"/>
      <point x="166" y="657"/>
    </contour>
  </outline>
</glyph>
<glyph name="H" format="2">
  <advance width="404"/>
  <unicode hex="0048"/>
  <outline>
    <contour>
      <point x="278" y="450" type="curve"/>
      <point x="196" y="450"/>
      <point x="148" y="450"/>
      <point x="68" y="448" type="curve"/>
      <point x="66" y="332"/>
      <point x="61" y="191"/>
      <point x="59" y="82" type="curve" smooth="yes"/>
      <point x="59" y="68"/>
      <point x="61" y="57"/>
      <point x="61" y="43" type="curve" smooth="yes"/>
      <point x="61" y="-8"/>
      <point x="5" y="-12"/>
      <point x="1" y="40" type="curve" smooth="yes"/>
      <point x="1" y="46"/>
      <point x="1" y="51"/>
      <point x="3" y="59" type="curve" smooth="yes"/>
      <point x="8" y="271"/>
      <point x="16" y="487"/>
      <point x="16" y="671" type="curve"/>
      <point x="22" y="724"/>
      <point x="76" y="717"/>
      <point x="73" y="666" type="curve" smooth="yes"/>
      <point x="73" y="597"/>
      <point x="73" y="554"/>
      <point x="68" y="511" type="curve"/>
      <point x="153" y="510"/>
      <point x="200" y="507"/>
      <point x="276" y="511" type="curve"/>
      <point x="279" y="564"/>
      <point x="279" y="614"/>
      <point x="281" y="665" type="curve" smooth="yes"/>
      <point x="284" y="711"/>
      <point x="336" y="709"/>
      <point x="336" y="665" type="curve" smooth="yes"/>
      <point x="336" y="313"/>
      <point x="338" y="220"/>
      <point x="338" y="50" type="curve" smooth="yes"/>
      <point x="338" y="39"/>
      <point x="338" y="25"/>
      <point x="332" y="16" type="curve" smooth="yes"/>
      <point x="319" y="-5"/>
      <point x="292" y="-4"/>
      <point x="284" y="18" type="curve" smooth="yes"/>
      <point x="279" y="33"/>
      <point x="278" y="47"/>
      <point x="278" y="62" type="curve" smooth="yes"/>
      <point x="278" y="218"/>
      <point x="278" y="334"/>
    </contour>
  </outline>
</glyph>
<glyph name="I" format="2">
  <advance width="324"/>
  <unicode hex="0049"/>
  <outline>
    <contour>
      <point x="159" y="67" type="curve"/>
      <point x="184" y="66"/>
      <point x="203" y="66"/>
      <point x="220" y="66" type="curve" smooth="yes"/>
      <point x="259" y="61"/>
      <point x="261" y="14"/>
      <point x="224" y="8" type="curve" smooth="yes"/>
      <point x="152" y="4"/>
      <point x="88" y="-6"/>
      <point x="27" y="6" type="curve"/>
      <point x="1" y="17"/>
      <point x="0" y="60"/>
      <point x="31" y="60" type="curve" smooth="yes"/>
      <point x="56" y="62"/>
      <point x="80" y="59"/>
      <point x="102" y="64" type="curve"/>
      <point x="102" y="253"/>
      <point x="104" y="450"/>
      <point x="104" y="641" type="curve"/>
      <point x="93" y="641"/>
      <point x="80" y="641"/>
      <point x="70" y="645" type="curve" smooth="yes"/>
      <point x="50" y="653"/>
      <point x="29" y="674"/>
      <point x="62" y="697" type="curve"/>
      <point x="102" y="705"/>
      <point x="154" y="699"/>
      <point x="193" y="699" type="curve" smooth="yes"/>
      <point x="223" y="699"/>
      <point x="246" y="657"/>
      <point x="199" y="643" type="curve" smooth="yes"/>
      <point x="193" y="641"/>
      <point x="175" y="645"/>
      <point x="164" y="641" type="curve"/>
      <point x="155" y="452"/>
      <point x="156" y="261"/>
    </contour>
  </outline>
</glyph>
<glyph name="L" format="2">
  <advance width="384"/>
  <unicode hex="004C"/>
  <outline>
    <contour>
      <point x="75" y="60" type="curve"/>
      <point x="142" y="56"/>
      <point x="205" y="60"/>
      <point x="268" y="60" type="curve"/>
      <point x="331" y="65"/>
      <point x="330" y="2"/>
      <point x="272" y="2" type="curve" smooth="yes"/>
      <point x="69" y="2"/>
      <point x="59" y="-2"/>
      <point x="49" y="-2" type="curve" smooth="yes"/>
      <point x="26" y="-2"/>
      <point x="10" y="19"/>
      <point x="10" y="44" type="curve" smooth="yes"/>
      <point x="24" y="255"/>
      <point x="4" y="456"/>
      <point x="13" y="657" type="curve" smooth="yes"/>
      <point x="15" y="679"/>
      <point x="26" y="694"/>
      <point x="42" y="694" type="curve" smooth="yes"/>
      <point x="60" y="696"/>
      <point x="71" y="682"/>
      <point x="71" y="657" type="curve" smooth="yes"/>
      <point x="65" y="448"/>
      <point x="75" y="254"/>
    </contour>
  </outline>
</glyph>
<glyph name="P" format="2">
  <advance width="328"/>
  <unicode hex="0050"/>
  <outline>
    <contour>
      <point x="69" y="207" type="curve"/>
      <point x="69" y="153"/>
      <point x="69" y="103"/>
      <point x="69" y="53" type="curve" smooth="yes"/>
      <point x="69" y="51"/>
      <point x="72" y="49"/>
      <point x="72" y="45" type="curve" smooth="yes"/>
      <point x="72" y="21"/>
      <point x="56" y="3"/>
      <point x="41" y="5" type="curve" smooth="yes"/>
      <point x="25" y="5"/>
      <point x="13" y="20"/>
      <point x="13" y="45" type="curve" smooth="yes"/>
      <point x="7" y="236"/>
      <point x="6" y="425"/>
      <point x="0" y="613" type="curve" smooth="yes"/>
      <point x="-1" y="658"/>
      <point x="4" y="666"/>
      <point x="44" y="682" type="curve" smooth="yes"/>
      <point x="155" y="723"/>
      <point x="261" y="656"/>
      <point x="271" y="538" type="curve" smooth="yes"/>
      <point x="277" y="472"/>
      <point x="263" y="416"/>
      <point x="227" y="362" type="curve" smooth="yes"/>
      <point x="190" y="304"/>
      <point x="139" y="258"/>
      <point x="83" y="217" type="curve" smooth="yes"/>
      <point x="79" y="212"/>
      <point x="75" y="211"/>
    </contour>
    <contour>
      <point x="69" y="283" type="curve"/>
      <point x="130" y="314"/>
      <point x="193" y="396"/>
      <point x="210" y="455" type="curve" smooth="yes"/>
      <point x="219" y="493"/>
      <point x="219" y="528"/>
      <point x="208" y="564" type="curve" smooth="yes"/>
      <point x="183" y="634"/>
      <point x="108" y="653"/>
      <point x="58" y="622" type="curve"/>
      <point x="61" y="512"/>
      <point x="66" y="400"/>
    </contour>
  </outline>
</glyph>
<glyph name="R" format="2">
  <advance width="328"/>
  <unicode hex="0052"/>
  <outline>
    <contour>
      <point x="-2" y="630" type="curve" smooth="yes"/>
      <point x="-4" y="672"/>
      <point x="4" y="686"/>
      <point x="43" y="692" type="curve" smooth="yes"/>
      <point x="343" y="733"/>
      <point x="306" y="367"/>
      <point x="129" y="270" type="curve"/>
      <point x="175" y="197"/>
      <point x="220" y="128"/>
      <point x="267" y="58" type="curve" smooth="yes"/>
      <point x="301" y="12"/>
      <point x="243" y="-27"/>
      <point x="210" y="39" type="curve"/>
      <point x="163" y="111"/>
      <point x="125" y="174"/>
      <point x="80" y="231" type="curve"/>
      <point x="74" y="223"/>
      <point x="70" y="215"/>
      <point x="69" y="205" type="curve" smooth="yes"/>
      <point x="67" y="144"/>
      <point x="69" y="90"/>
      <point x="69" y="37" type="curve" smooth="yes"/>
      <point x="69" y="-5"/>
      <point x="10" y="-11"/>
      <point x="10" y="31" type="curve" smooth="yes"/>
      <point x="3" y="231"/>
      <point x="9" y="431"/>
    </contour>
    <contour>
      <point x="70" y="301" type="curve"/>
      <point x="230" y="356"/>
      <point x="291" y="669"/>
      <point x="56" y="630" type="curve"/>
      <point x="61" y="522"/>
      <point x="64" y="414"/>
    </contour>
  </outline>
</glyph>
<glyph name="U" format="2">
  <advance width="420"/>
  <unicode hex="0055"/>
  <outline>
    <contour>
      <point x="90" y="159" type="curve"/>
      <point x="113" y="62"/>
      <point x="195" y="21"/>
      <point x="248" y="124" type="curve" smooth="yes"/>
      <point x="316" y="263"/>
      <point x="308" y="449"/>
      <point x="283" y="593" type="curve" smooth="yes"/>
      <point x="279" y="613"/>
      <point x="275" y="634"/>
      <point x="273" y="653" type="curve" smooth="yes"/>
      <point x="276" y="699"/>
      <point x="318" y="708"/>
      <point x="329" y="664" type="curve" smooth="yes"/>
      <point x="359" y="497"/>
      <point x="372" y="329"/>
      <point x="324" y="161" type="curve" smooth="yes"/>
      <point x="312" y="118"/>
      <point x="292" y="78"/>
      <point x="265" y="45" type="curve" smooth="yes"/>
      <point x="224" y="-6"/>
      <point x="167" y="-14"/>
      <point x="116" y="23" type="curve" smooth="yes"/>
      <point x="79" y="47"/>
      <point x="59" y="82"/>
      <point x="40" y="126" type="curve" smooth="yes"/>
      <point x="-17" y="288"/>
      <point x="9" y="478"/>
      <point x="21" y="640" type="curve" smooth="yes"/>
      <point x="21" y="650"/>
      <point x="21" y="660"/>
      <point x="23" y="667" type="curve" smooth="yes"/>
      <point x="31" y="701"/>
      <point x="72" y="702"/>
      <point x="76" y="667" type="curve" smooth="yes"/>
      <point x="78" y="656"/>
      <point x="78" y="646"/>
      <point x="78" y="634" type="curve" smooth="yes"/>
      <point x="63" y="468"/>
      <point x="44" y="311"/>
    </contour>
  </outline>
</glyph>
<glyph name="bracketleft" format="2">
  <advance width="194"/>
  <unicode hex="005B"/>
  <outline>
    <contour>
      <point x="61" y="38" type="curve"/>
      <point x="74" y="41"/>
      <point x="93" y="41"/>
      <point x="109" y="41" type="curve" smooth="yes"/>
      <point x="141" y="41"/>
      <point x="136" y="-4"/>
      <point x="109" y="-9" type="curve" smooth="yes"/>
      <point x="90" y="-12"/>
      <point x="75" y="-11"/>
      <point x="57" y="-11" type="curve" smooth="yes"/>
      <point x="34" y="-11"/>
      <point x="8" y="0"/>
      <point x="8" y="21" type="curve" smooth="yes"/>
      <point x="12" y="247"/>
      <point x="4" y="460"/>
      <point x="4" y="679" type="curve" smooth="yes"/>
      <point x="3" y="700"/>
      <point x="16" y="712"/>
      <point x="44" y="712" type="curve" smooth="yes"/>
      <point x="68" y="712"/>
      <point x="107" y="715"/>
      <point x="123" y="705" type="curve" smooth="yes"/>
      <point x="145" y="692"/>
      <point x="136" y="660"/>
      <point x="109" y="660" type="curve" smooth="yes"/>
      <point x="90" y="661"/>
      <point x="80" y="660"/>
      <point x="57" y="661" type="curve"/>
      <point x="67" y="444"/>
      <point x="61" y="241"/>
    </contour>
  </outline>
</glyph>
<glyph name="bracketright" format="2">
  <advance width="208"/>
  <unicode hex="005D"/>
  <outline>
    <contour>
      <point x="87" y="38" type="curve"/>
      <point x="87" y="241"/>
      <point x="81" y="444"/>
      <point x="91" y="661" type="curve"/>
      <point x="68" y="660"/>
      <point x="58" y="661"/>
      <point x="39" y="660" type="curve" smooth="yes"/>
      <point x="12" y="660"/>
      <point x="3" y="692"/>
      <point x="25" y="705" type="curve" smooth="yes"/>
      <point x="41" y="715"/>
      <point x="80" y="712"/>
      <point x="104" y="712" type="curve" smooth="yes"/>
      <point x="132" y="712"/>
      <point x="145" y="700"/>
      <point x="144" y="679" type="curve" smooth="yes"/>
      <point x="144" y="460"/>
      <point x="136" y="247"/>
      <point x="140" y="21" type="curve" smooth="yes"/>
      <point x="140" y="0"/>
      <point x="114" y="-11"/>
      <point x="91" y="-11" type="curve" smooth="yes"/>
      <point x="73" y="-11"/>
      <point x="58" y="-12"/>
      <point x="39" y="-9" type="curve" smooth="yes"/>
      <point x="12" y="-4"/>
      <point x="7" y="41"/>
      <point x="39" y="41" type="curve" smooth="yes"/>
      <point x="55" y="41"/>
      <point x="74" y="41"/>
    </contour>
  </outline>
</glyph>
<glyph name="c" format="2">
  <advance width="450"/>
  <unicode hex="0063"/>
  <outline>
    <contour>
      <point x="30" y="425" type="curve" smooth="yes"/>
      <point x="85" y="578"/>
      <point x="303" y="604"/>
      <point x="346" y="433" type="curve" smooth="yes"/>
      <point x="353" y="402"/>
      <point x="299" y="395"/>
      <point x="293" y="425" type="curve" smooth="yes"/>
      <point x="267" y="535"/>
      <point x="120" y="510"/>
      <point x="84" y="410" type="curve" smooth="yes"/>
      <point x="54" y="320"/>
      <point x="43" y="224"/>
      <point x="83" y="137" type="curve" smooth="yes"/>
      <point x="159" y="-27"/>
      <point x="300" y="136"/>
      <point x="342" y="222" type="curve" smooth="yes"/>
      <point x="361" y="270"/>
      <point x="405" y="237"/>
      <point x="393" y="199" type="curve" smooth="yes"/>
      <point x="335" y="54"/>
      <point x="125" y="-99"/>
      <point x="37" y="103" type="curve" smooth="yes"/>
      <point x="-8" y="207"/>
      <point x="-6" y="328"/>
    </contour>
  </outline>
</glyph>
<glyph name="d" format="2">
  <advance width="456"/>
  <unicode hex="0064"/>
  <outline>
    <contour>
      <point x="336" y="483" type="curve"/>
      <point x="339" y="551"/>
      <point x="341" y="614"/>
      <point x="344" y="674" type="curve" smooth="yes"/>
      <point x="344" y="741"/>
      <point x="401" y="745"/>
      <point x="401" y="681" type="curve" smooth="yes"/>
      <point x="398" y="608"/>
      <point x="394" y="533"/>
      <point x="392" y="460" type="curve"/>
      <point x="395" y="422"/>
      <point x="387" y="296"/>
      <point x="388" y="259" type="curve" smooth="yes"/>
      <point x="388" y="203"/>
      <point x="390" y="147"/>
      <point x="392" y="91" type="curve" smooth="yes"/>
      <point x="392" y="78"/>
      <point x="398" y="65"/>
      <point x="400" y="52" type="curve" smooth="yes"/>
      <point x="412" y="5"/>
      <point x="355" y="-15"/>
      <point x="344" y="29" type="curve" smooth="yes"/>
      <point x="331" y="87"/>
      <point x="335" y="146"/>
      <point x="326" y="203" type="curve"/>
      <point x="288" y="142"/>
      <point x="259" y="85"/>
      <point x="212" y="39" type="curve" smooth="yes"/>
      <point x="119" y="-51"/>
      <point x="19" y="7"/>
      <point x="5" y="120" type="curve"/>
      <point x="2" y="225"/>
      <point x="20" y="332"/>
      <point x="72" y="417" type="curve" smooth="yes"/>
      <point x="123" y="501"/>
      <point x="192" y="527"/>
      <point x="289" y="498" type="curve" smooth="yes"/>
      <point x="303" y="494"/>
      <point x="317" y="490"/>
    </contour>
    <contour>
      <point x="59" y="160" type="curve"/>
      <point x="68" y="56"/>
      <point x="109" y="-3"/>
      <point x="189" y="95" type="curve" smooth="yes"/>
      <point x="255" y="172"/>
      <point x="292" y="265"/>
      <point x="329" y="356" type="curve" smooth="yes"/>
      <point x="343" y="390"/>
      <point x="328" y="433"/>
      <point x="278" y="446" type="curve" smooth="yes"/>
      <point x="194" y="468"/>
      <point x="152" y="451"/>
      <point x="112" y="377" type="curve" smooth="yes"/>
      <point x="77" y="307"/>
      <point x="66" y="233"/>
    </contour>
  </outline>
</glyph>
<glyph name="g" format="2">
  <advance width="388"/>
  <unicode hex="0067"/>
  <outline>
    <contour>
      <point x="254" y="217" type="curve"/>
      <point x="224" y="166"/>
      <point x="194" y="114"/>
      <point x="153" y="73" type="curve" smooth="yes"/>
      <point x="98" y="20"/>
      <point x="39" y="37"/>
      <point x="17" y="110" type="curve" smooth="yes"/>
      <point x="-14" y="230"/>
      <point x="7" y="348"/>
      <point x="55" y="457" type="curve"/>
      <point x="94" y="529"/>
      <point x="188" y="574"/>
      <point x="275" y="505" type="curve"/>
      <point x="299" y="518"/>
      <point x="335" y="517"/>
      <point x="329" y="484" type="curve" smooth="yes"/>
      <point x="297" y="300"/>
      <point x="400" y="-339"/>
      <point x="40" y="-163" type="curve" smooth="yes"/>
      <point x="27" y="-157"/>
      <point x="23" y="-143"/>
      <point x="29" y="-128" type="curve" smooth="yes"/>
      <point x="36" y="-113"/>
      <point x="49" y="-112"/>
      <point x="62" y="-116" type="curve" smooth="yes"/>
      <point x="268" y="-225"/>
      <point x="262" y="111"/>
    </contour>
    <contour>
      <point x="151" y="156" type="curve" smooth="yes"/>
      <point x="187" y="217"/>
      <point x="222" y="279"/>
      <point x="256" y="342" type="curve" smooth="yes"/>
      <point x="309" y="438"/>
      <point x="183" y="542"/>
      <point x="115" y="446" type="curve" smooth="yes"/>
      <point x="60" y="367"/>
      <point x="52" y="260"/>
      <point x="61" y="169" type="curve" smooth="yes"/>
      <point x="68" y="86"/>
      <point x="112" y="92"/>
    </contour>
  </outline>
</glyph>
<glyph name="i" format="2">
  <advance width="196"/>
  <unicode hex="0069"/>
  <outline>
    <contour>
      <point x="75" y="444" type="curve"/>
      <point x="47" y="426"/>
      <point x="18" y="416"/>
      <point x="4" y="449" type="curve" smooth="yes"/>
      <point x="-3" y="464"/>
      <point x="-2" y="475"/>
      <point x="10" y="485" type="curve" smooth="yes"/>
      <point x="31" y="504"/>
      <point x="109" y="534"/>
      <point x="123" y="505" type="curve" smooth="yes"/>
      <point x="130" y="490"/>
      <point x="132" y="471"/>
      <point x="132" y="458" type="curve" smooth="yes"/>
      <point x="133" y="319"/>
      <point x="134" y="186"/>
      <point x="137" y="54" type="curve" smooth="yes"/>
      <point x="137" y="46"/>
      <point x="138" y="40"/>
      <point x="137" y="32" type="curve" smooth="yes"/>
      <point x="132" y="0"/>
      <point x="90" y="1"/>
      <point x="84" y="29" type="curve" smooth="yes"/>
      <point x="82" y="40"/>
      <point x="81" y="52"/>
      <point x="81" y="64" type="curve" smooth="yes"/>
      <point x="80" y="196"/>
      <point x="80" y="320"/>
    </contour>
    <contour>
      <point x="134" y="653" type="curve" smooth="yes"/>
      <point x="135" y="632"/>
      <point x="119" y="610"/>
      <point x="101" y="610" type="curve" smooth="yes"/>
      <point x="85" y="609"/>
      <point x="73" y="621"/>
      <point x="74" y="637" type="curve" smooth="yes"/>
      <point x="74" y="659"/>
      <point x="92" y="679"/>
      <point x="109" y="679" type="curve" smooth="yes"/>
      <point x="124" y="679"/>
      <point x="134" y="669"/>
    </contour>
  </outline>
</glyph>
<glyph name="k" format="2">
  <advance width="461"/>
  <unicode hex="006B"/>
  <outline>
    <contour>
      <point x="66" y="314" type="curve"/>
      <point x="112" y="336"/>
      <point x="219" y="469"/>
      <point x="259" y="514" type="curve" smooth="yes"/>
      <point x="260" y="515"/>
      <point x="261" y="516"/>
      <point x="262" y="517" type="curve" smooth="yes"/>
      <point x="295" y="555"/>
      <point x="338" y="525"/>
      <point x="306" y="485" type="curve" smooth="yes"/>
      <point x="244" y="409"/>
      <point x="179" y="343"/>
      <point x="117" y="276" type="curve"/>
      <point x="210" y="200"/>
      <point x="301" y="126"/>
      <point x="394" y="53" type="curve" smooth="yes"/>
      <point x="426" y="26"/>
      <point x="394" y="-9"/>
      <point x="362" y="8" type="curve" smooth="yes"/>
      <point x="354" y="14"/>
      <point x="346" y="20"/>
      <point x="338" y="26" type="curve" smooth="yes"/>
      <point x="245" y="101"/>
      <point x="158" y="172"/>
      <point x="69" y="241" type="curve"/>
      <point x="72" y="167"/>
      <point x="74" y="103"/>
      <point x="79" y="38" type="curve" smooth="yes"/>
      <point x="83" y="3"/>
      <point x="38" y="-2"/>
      <point x="27" y="26" type="curve" smooth="yes"/>
      <point x="23" y="34"/>
      <point x="21" y="45"/>
      <point x="20" y="54" type="curve" smooth="yes"/>
      <point x="9" y="255"/>
      <point x="-1" y="456"/>
      <point x="8" y="657" type="curve" smooth="yes"/>
      <point x="14" y="725"/>
      <point x="63" y="721"/>
      <point x="63" y="654" type="curve" smooth="yes"/>
      <point x="63" y="341"/>
      <point x="65" y="327"/>
    </contour>
  </outline>
</glyph>
<glyph name="n" format="2">
  <advance width="366"/>
  <unicode hex="006E"/>
  <outline>
    <contour>
      <point x="189" y="474" type="curve" smooth="yes"/>
      <point x="136" y="428"/>
      <point x="65" y="363"/>
      <point x="65" y="291" type="curve" smooth="yes"/>
      <point x="64" y="210"/>
      <point x="61" y="190"/>
      <point x="60" y="109" type="curve" smooth="yes"/>
      <point x="59" y="91"/>
      <point x="64" y="71"/>
      <point x="67" y="53" type="curve" smooth="yes"/>
      <point x="72" y="14"/>
      <point x="19" y="2"/>
      <point x="7" y="38" type="curve" smooth="yes"/>
      <point x="4" y="47"/>
      <point x="3" y="57"/>
      <point x="4" y="68" type="curve" smooth="yes"/>
      <point x="7" y="235"/>
      <point x="12" y="344"/>
      <point x="16" y="513" type="curve" smooth="yes"/>
      <point x="16" y="523"/>
      <point x="17" y="534"/>
      <point x="19" y="544" type="curve" smooth="yes"/>
      <point x="27" y="573"/>
      <point x="71" y="567"/>
      <point x="73" y="539" type="curve" smooth="yes"/>
      <point x="74" y="533"/>
      <point x="72" y="526"/>
      <point x="72" y="520" type="curve" smooth="yes"/>
      <point x="69" y="493"/>
      <point x="68" y="467"/>
      <point x="66" y="433" type="curve"/>
      <point x="103" y="463"/>
      <point x="134" y="498"/>
      <point x="172" y="526" type="curve" smooth="yes"/>
      <point x="218" y="560"/>
      <point x="263" y="549"/>
      <point x="287" y="497" type="curve" smooth="yes"/>
      <point x="305" y="460"/>
      <point x="304" y="422"/>
      <point x="304" y="383" type="curve" smooth="yes"/>
      <point x="304" y="241"/>
      <point x="301" y="180"/>
      <point x="308" y="58" type="curve" smooth="yes"/>
      <point x="311" y="13"/>
      <point x="253" y="8"/>
      <point x="251" y="53" type="curve" smooth="yes"/>
      <point x="243" y="178"/>
      <point x="249" y="232"/>
      <point x="249" y="346" type="curve" smooth="yes"/>
      <point x="249" y="381"/>
      <point x="244" y="414"/>
      <point x="240" y="448" type="curve" smooth="yes"/>
      <point x="234" y="488"/>
      <point x="221" y="499"/>
    </contour>
  </outline>
</glyph>
<glyph name="p" format="2">
  <advance width="384"/>
  <unicode hex="0070"/>
  <outline>
    <contour>
      <point x="66" y="519" type="curve"/>
      <point x="123" y="576"/>
      <point x="226" y="611"/>
      <point x="287" y="561" type="curve" smooth="yes"/>
      <point x="306" y="545"/>
      <point x="320" y="520"/>
      <point x="328" y="487" type="curve" smooth="yes"/>
      <point x="354" y="374"/>
      <point x="330" y="301"/>
      <point x="257" y="208" type="curve" smooth="yes"/>
      <point x="215" y="158"/>
      <point x="165" y="120"/>
      <point x="112" y="83" type="curve" smooth="yes"/>
      <point x="47" y="39"/>
      <point x="70" y="-54"/>
      <point x="75" y="-129" type="curve" smooth="yes"/>
      <point x="76" y="-136"/>
      <point x="77" y="-144"/>
      <point x="77" y="-150" type="curve" smooth="yes"/>
      <point x="67" y="-204"/>
      <point x="17" y="-203"/>
      <point x="13" y="-149" type="curve" smooth="yes"/>
      <point x="12" y="-136"/>
      <point x="13" y="-122"/>
      <point x="13" y="-109" type="curve" smooth="yes"/>
      <point x="12" y="57"/>
      <point x="12" y="193"/>
      <point x="10" y="360" type="curve" smooth="yes"/>
      <point x="10" y="411"/>
      <point x="2" y="561"/>
      <point x="8" y="580" type="curve"/>
      <point x="11" y="622"/>
      <point x="61" y="619"/>
      <point x="63" y="580" type="curve" smooth="yes"/>
      <point x="64" y="564"/>
      <point x="66" y="536"/>
    </contour>
    <contour>
      <point x="72" y="126" type="curve"/>
      <point x="113" y="147"/>
      <point x="144" y="173"/>
      <point x="174" y="202" type="curve" smooth="yes"/>
      <point x="256" y="280"/>
      <point x="306" y="368"/>
      <point x="274" y="476" type="curve" smooth="yes"/>
      <point x="243" y="580"/>
      <point x="116" y="503"/>
      <point x="77" y="456" type="curve" smooth="yes"/>
      <point x="69" y="448"/>
      <point x="65" y="434"/>
      <point x="65" y="423" type="curve" smooth="yes"/>
      <point x="67" y="316"/>
      <point x="69" y="238"/>
    </contour>
  </outline>
</glyph>
<glyph name="s" format="2">
  <advance width="403"/>
  <unicode hex="0073"/>
  <outline>
    <contour>
      <point x="40" y="15" type="curve"/>
      <point x="-15" y="28"/>
      <point x="7" y="103"/>
      <point x="46" y="79" type="curve" smooth="yes"/>
      <point x="139" y="17"/>
      <point x="290" y="65"/>
      <point x="292" y="185" type="curve" smooth="yes"/>
      <point x="292" y="241"/>
      <point x="273" y="289"/>
      <point x="231" y="321" type="curve" smooth="yes"/>
      <point x="200" y="345"/>
      <point x="171" y="360"/>
      <point x="141" y="372" type="curve" smooth="yes"/>
      <point x="15" y="429"/>
      <point x="72" y="623"/>
      <point x="191" y="623" type="curve" smooth="yes"/>
      <point x="215" y="623"/>
      <point x="239" y="618"/>
      <point x="261" y="611" type="curve" smooth="yes"/>
      <point x="297" y="600"/>
      <point x="300" y="543"/>
      <point x="258" y="549" type="curve" smooth="yes"/>
      <point x="241" y="553"/>
      <point x="227" y="561"/>
      <point x="211" y="565" type="curve" smooth="yes"/>
      <point x="129" y="584"/>
      <point x="92" y="458"/>
      <point x="164" y="423" type="curve" smooth="yes"/>
      <point x="195" y="409"/>
      <point x="225" y="395"/>
      <point x="253" y="376" type="curve" smooth="yes"/>
      <point x="332" y="319"/>
      <point x="360" y="238"/>
      <point x="345" y="143" type="curve" smooth="yes"/>
      <point x="323" y="4"/>
      <point x="149" y="-25"/>
    </contour>
  </outline>
</glyph>
<glyph name="t" format="2">
  <advance width="416"/>
  <unicode hex="0074"/>
  <outline>
    <contour>
      <point x="155" y="421" type="curve"/>
      <point x="185" y="420"/>
      <point x="268" y="424"/>
      <point x="283" y="418" type="curve" smooth="yes"/>
      <point x="302" y="408"/>
      <point x="319" y="389"/>
      <point x="296" y="373" type="curve" smooth="yes"/>
      <point x="285" y="367"/>
      <point x="269" y="365"/>
      <point x="256" y="364" type="curve" smooth="yes"/>
      <point x="225" y="364"/>
      <point x="189" y="366"/>
      <point x="154" y="367" type="curve"/>
      <point x="151" y="309"/>
      <point x="159" y="199"/>
      <point x="161" y="147" type="curve"/>
      <point x="173" y="65"/>
      <point x="229" y="34"/>
      <point x="310" y="73" type="curve" smooth="yes"/>
      <point x="357" y="97"/>
      <point x="368" y="29"/>
      <point x="319" y="18" type="curve" smooth="yes"/>
      <point x="235" y="-6"/>
      <point x="135" y="2"/>
      <point x="113" y="113" type="curve" smooth="yes"/>
      <point x="95" y="201"/>
      <point x="99" y="285"/>
      <point x="96" y="367" type="curve"/>
      <point x="75" y="371"/>
      <point x="57" y="368"/>
      <point x="38" y="372" type="curve" smooth="yes"/>
      <point x="-12" y="382"/>
      <point x="-3" y="436"/>
      <point x="49" y="427" type="curve" smooth="yes"/>
      <point x="63" y="425"/>
      <point x="77" y="426"/>
      <point x="93" y="424" type="curve"/>
      <point x="98" y="503"/>
      <point x="99" y="579"/>
      <point x="104" y="654" type="curve" smooth="yes"/>
      <point x="104" y="665"/>
      <point x="105" y="678"/>
      <point x="112" y="687" type="curve" smooth="yes"/>
      <point x="129" y="710"/>
      <point x="163" y="709"/>
      <point x="165" y="678" type="curve" smooth="yes"/>
      <point x="166" y="672"/>
      <point x="165" y="666"/>
      <point x="164" y="660" type="curve" smooth="yes"/>
      <point x="154" y="579"/>
      <point x="156" y="489"/>
    </contour>
  </outline>
</glyph>
<glyph name="x" format="2">
  <advance width="452"/>
  <unicode hex="0078"/>
  <outline>
    <contour>
      <point x="208" y="270" type="curve"/>
      <point x="164" y="190"/>
      <point x="124" y="110"/>
      <point x="85" y="30" type="curve" smooth="yes"/>
      <point x="58" y="-23"/>
      <point x="9" y="5"/>
      <point x="29" y="45" type="curve" smooth="yes"/>
      <point x="77" y="139"/>
      <point x="128" y="233"/>
      <point x="178" y="326" type="curve"/>
      <point x="155" y="359"/>
      <point x="132" y="393"/>
      <point x="108" y="427" type="curve" smooth="yes"/>
      <point x="82" y="464"/>
      <point x="55" y="501"/>
      <point x="28" y="536" type="curve"/>
      <point x="-2" y="586"/>
      <point x="45" y="610"/>
      <point x="74" y="567" type="curve" smooth="yes"/>
      <point x="121" y="502"/>
      <point x="164" y="439"/>
      <point x="210" y="379" type="curve"/>
      <point x="250" y="440"/>
      <point x="285" y="502"/>
      <point x="323" y="563" type="curve" smooth="yes"/>
      <point x="354" y="613"/>
      <point x="399" y="590"/>
      <point x="379" y="552" type="curve" smooth="yes"/>
      <point x="342" y="489"/>
      <point x="304" y="423"/>
      <point x="264" y="361" type="curve" smooth="yes"/>
      <point x="244" y="334"/>
      <point x="246" y="314"/>
      <point x="263" y="288" type="curve" smooth="yes"/>
      <point x="309" y="213"/>
      <point x="350" y="138"/>
      <point x="394" y="63" type="curve" smooth="yes"/>
      <point x="427" y="6"/>
      <point x="378" y="-25"/>
      <point x="343" y="43" type="curve"/>
      <point x="295" y="125"/>
      <point x="250" y="197"/>
    </contour>
  </outline>
</glyph>
<glyph name="bar" format="2">
  <advance width="137"/>
  <unicode hex="007C"/>
  <outline>
    <contour>
      <point x="11" y="706" type="curve" smooth="yes"/>
      <point x="11" y="784"/>
      <point x="71" y="746"/>
      <point x="71" y="697" type="curve" smooth="yes"/>
      <point x="71" y="456"/>
      <point x="70" y="218"/>
      <point x="82" y="-21" type="curve"/>
      <point x="65" y="-78"/>
      <point x="20" y="-50"/>
      <point x="20" y="-2" type="curve" smooth="yes"/>
      <point x="11" y="270"/>
      <point x="11" y="485"/>
    </contour>
  </outline>
</glyph>
<glyph name="asciitilde" format="2">
  <advance width="476"/>
  <unicode hex="007E"/>
  <outline>
    <contour>
      <point x="176" y="321" type="curve" smooth="yes"/>
      <point x="139" y="351"/>
      <point x="114" y="349"/>
      <point x="81" y="315" type="curve"/>
      <point x="38" y="258"/>
      <point x="-10" y="299"/>
      <point x="11" y="332" type="curve"/>
      <point x="43" y="401"/>
      <point x="132" y="450"/>
      <point x="202" y="385" type="curve"/>
      <point x="248" y="351"/>
      <point x="289" y="339"/>
      <point x="324" y="378" type="curve" smooth="yes"/>
      <point x="334" y="388"/>
      <point x="344" y="400"/>
      <point x="353" y="407" type="curve" smooth="yes"/>
      <point x="379" y="427"/>
      <point x="409" y="396"/>
      <point x="400" y="368" type="curve" smooth="yes"/>
      <point x="377" y="302"/>
      <point x="263" y="245"/>
    </contour>
  </outline>
</glyph>
<glyph name=".notdef" format="2">
  <advance width="266"/>
  <outline>
    <contour>
      <point x="246" y="688" type="line"/>
      <point x="20" y="20" type="line"/>
      <point x="246" y="20" type="line"/>
    </contour>
    <contour>
      <point x="20" y="688" type="line"/>
      <point x="246" y="688" type="line"/>
      <point x="246" y="20" type="line"/>
      <point x="20" y="20" type="line"/>
    </contour>
    <contour>
      <point x="10" y="698" type="line"/>
      <point x="256" y="698" type="line"/>
      <point x="256" y="10" type="line"/>
      <point x="10" y="10" type="line"/>
    </contour>
  </outline>
</glyph>
